<svg width="182" height="46" viewBox="0 0 182 46" fill="none" xmlns="http://www.w3.org/2000/svg">
<path d="M19.5069 0.0200778C17.5585 0.0302159 15.6225 0.332821 13.7639 0.917772C3.7 4.04347 -3.67622 17.5467 1.94247 29.8278C15.2943 59.0298 59.0054 42.3144 58.47 13.5666C58.2916 3.86501 47.6166 -1.03444 44.1718 5.12503C43.0903 7.37466 42.2899 14.5886 42.1331 15.6378C40.1539 28.6164 33.9511 32.337 31.2743 33.6673C28.6731 35.1869 13.023 39.0751 7.22046 27.178C4.32189 21.2294 5.49538 13.5395 10.4002 8.88885C11.8686 7.35506 13.6946 6.20959 15.7146 5.55513C17.7346 4.90068 19.8854 4.75768 21.9742 5.13896C24.063 5.52025 26.0246 6.4139 27.6831 7.7398C29.3416 9.0657 30.6451 10.7824 31.4769 12.7361C32.3087 14.6897 32.6427 16.8192 32.449 18.9337C32.2553 21.0482 31.5399 23.0816 30.367 24.8516C29.1941 26.6216 27.6004 28.0729 25.7286 29.0754C23.8568 30.0779 21.7655 30.6003 19.6421 30.5957C17.3444 30.5076 15.1086 29.8257 13.1528 28.6164C12.612 28.3082 12.2064 28.8436 12.7256 29.2005C23.9089 36.9823 32.6803 26.9076 32.6803 26.9076C34.6272 24.6409 35.9158 21.884 36.4063 18.9365C36.7576 16.541 36.5786 14.0975 35.8819 11.7788C35.1853 9.45999 33.988 7.32248 32.3746 5.51722C30.7612 3.71196 28.7711 2.28298 26.5448 1.33124C24.3186 0.379506 21.9105 -0.0717768 19.4907 0.00926821" fill="white"/>
<path d="M71.7244 31.7908C71.7229 31.6268 71.7863 31.4688 71.9008 31.3513C72.0152 31.2339 72.1715 31.1663 72.3355 31.1635H75.5315C78.9762 31.1635 81.3556 33.5267 81.3556 36.6091V36.6416C81.3556 39.724 78.9762 42.1197 75.5315 42.1197H72.3355C72.1715 42.1168 72.0152 42.0493 71.9008 41.9318C71.7863 41.8143 71.7229 41.6564 71.7244 41.4924V31.7908ZM75.5098 40.984C78.2786 40.984 80.047 39.1021 80.047 36.6578V36.6254C80.047 34.1973 78.2786 32.2991 75.5098 32.2991H72.9628V40.9516L75.5098 40.984Z" fill="white"/>
<path d="M86.2659 31.7097C86.2578 31.6235 86.2678 31.5366 86.2953 31.4545C86.3227 31.3724 86.367 31.297 86.4253 31.233C86.4836 31.169 86.5546 31.1179 86.6337 31.0829C86.7129 31.0479 86.7985 31.0299 86.8851 31.0299C86.9716 31.0299 87.0572 31.0479 87.1364 31.0829C87.2156 31.1179 87.2866 31.169 87.3448 31.233C87.4031 31.297 87.4474 31.3724 87.4749 31.4545C87.5023 31.5366 87.5123 31.6235 87.5043 31.7097V41.5735C87.5123 41.6597 87.5023 41.7466 87.4749 41.8287C87.4474 41.9107 87.4031 41.9862 87.3448 42.0502C87.2866 42.1142 87.2156 42.1653 87.1364 42.2003C87.0572 42.2352 86.9716 42.2533 86.8851 42.2533C86.7985 42.2533 86.7129 42.2352 86.6337 42.2003C86.5546 42.1653 86.4836 42.1142 86.4253 42.0502C86.367 41.9862 86.3227 41.9107 86.2953 41.8287C86.2678 41.7466 86.2578 41.6597 86.2659 41.5735V31.7097Z" fill="white"/>
<path d="M92.4146 36.674V36.6416C92.3922 35.9058 92.5176 35.173 92.7836 34.4867C93.0496 33.8003 93.4507 33.1743 93.963 32.6458C94.4754 32.1173 95.0887 31.697 95.7665 31.4099C96.4443 31.1228 97.1728 30.9746 97.9089 30.9742C99.2543 30.9219 100.576 31.3365 101.651 32.1477C101.728 32.2068 101.791 32.2829 101.834 32.3701C101.877 32.4573 101.9 32.5533 101.9 32.6506C101.901 32.8137 101.839 32.9709 101.725 33.0882C101.612 33.2056 101.457 33.2737 101.294 33.2779C101.149 33.2706 101.01 33.2155 100.899 33.1211C100.037 32.4387 98.9597 32.0842 97.8602 32.1207C95.4375 32.1207 93.7016 34.1702 93.7016 36.6091V36.6416C93.7016 39.2535 95.3727 41.1949 98.0279 41.1949C99.1733 41.196 100.286 40.8154 101.191 40.1134V37.4095H98.2496C98.1062 37.4095 97.9686 37.3525 97.8672 37.2511C97.7658 37.1497 97.7088 37.0121 97.7088 36.8687C97.7088 36.7253 97.7658 36.5877 97.8672 36.4863C97.9686 36.3849 98.1062 36.3279 98.2496 36.3279H101.77C101.933 36.3308 102.089 36.3975 102.203 36.5139C102.317 36.6302 102.381 36.7867 102.381 36.9498V40.2107C102.381 40.3615 102.341 40.5097 102.268 40.6412C102.194 40.7728 102.088 40.8833 101.959 40.9624C100.812 41.8212 99.418 42.2877 97.9846 42.2927C94.5398 42.2927 92.4092 39.7889 92.4092 36.6578" fill="white"/>
<path d="M107.47 31.7097C107.462 31.6235 107.472 31.5366 107.499 31.4545C107.527 31.3724 107.571 31.297 107.629 31.233C107.688 31.169 107.759 31.1179 107.838 31.0829C107.917 31.0479 108.003 31.0299 108.089 31.0299C108.176 31.0299 108.261 31.0479 108.341 31.0829C108.42 31.1179 108.491 31.169 108.549 31.233C108.607 31.297 108.652 31.3724 108.679 31.4545C108.706 31.5366 108.716 31.6235 108.708 31.7097V41.5735C108.716 41.6597 108.706 41.7466 108.679 41.8287C108.652 41.9107 108.607 41.9862 108.549 42.0502C108.491 42.1142 108.42 42.1653 108.341 42.2003C108.261 42.2352 108.176 42.2533 108.089 42.2533C108.003 42.2533 107.917 42.2352 107.838 42.2003C107.759 42.1653 107.688 42.1142 107.629 42.0502C107.571 41.9862 107.527 41.9107 107.499 41.8287C107.472 41.7466 107.462 41.6597 107.47 41.5735V31.7097Z" fill="white"/>
<path d="M116.982 32.3045H113.803C113.655 32.3062 113.513 32.2509 113.405 32.1501C113.297 32.0494 113.232 31.911 113.224 31.7638C113.225 31.6107 113.287 31.4644 113.395 31.3562C113.503 31.2479 113.649 31.1865 113.803 31.1851H121.411C121.564 31.1865 121.711 31.2479 121.819 31.3562C121.927 31.4644 121.988 31.6107 121.99 31.7638C121.982 31.911 121.917 32.0494 121.809 32.1501C121.701 32.2509 121.559 32.3062 121.411 32.3045H118.231V41.5735C118.24 41.6604 118.229 41.748 118.202 41.8308C118.174 41.9136 118.129 41.9896 118.071 42.0542C118.012 42.1187 117.94 42.1702 117.86 42.2055C117.781 42.2407 117.694 42.259 117.607 42.259C117.52 42.259 117.433 42.2407 117.353 42.2055C117.274 42.1702 117.202 42.1187 117.143 42.0542C117.084 41.9896 117.04 41.9136 117.012 41.8308C116.984 41.748 116.974 41.6604 116.982 41.5735V32.3045Z" fill="white"/>
<path d="M124.418 41.2923L128.863 31.5583C128.919 31.3965 129.026 31.2569 129.167 31.1596C129.308 31.0624 129.476 31.0126 129.647 31.0175H129.712C129.881 31.0144 130.046 31.0651 130.184 31.1624C130.322 31.2596 130.426 31.3983 130.48 31.5583L134.925 41.2923C134.969 41.3913 134.995 41.4976 135.001 41.6059C135.001 41.7637 134.938 41.915 134.827 42.0266C134.715 42.1381 134.564 42.2008 134.406 42.2008C134.27 42.1952 134.139 42.1489 134.03 42.0679C133.921 41.9869 133.839 41.8749 133.795 41.7465L132.665 39.2265H126.64L125.499 41.7736C125.459 41.899 125.379 42.0082 125.272 42.0851C125.165 42.162 125.036 42.2025 124.904 42.2008C124.831 42.2009 124.759 42.1861 124.691 42.1572C124.624 42.1284 124.563 42.0861 124.512 42.033C124.462 41.9798 124.422 41.917 124.397 41.8482C124.371 41.7795 124.36 41.7062 124.364 41.633C124.364 41.5205 124.39 41.4094 124.439 41.3085L124.418 41.2923ZM132.189 38.0963L129.669 32.4938L127.149 38.0963H132.189Z" fill="white"/>
<path d="M139.554 31.7097C139.546 31.6235 139.556 31.5366 139.584 31.4545C139.611 31.3724 139.655 31.297 139.714 31.233C139.772 31.169 139.843 31.1179 139.922 31.0829C140.001 31.0479 140.087 31.0299 140.173 31.0299C140.26 31.0299 140.346 31.0479 140.425 31.0829C140.504 31.1179 140.575 31.169 140.633 31.233C140.691 31.297 140.736 31.3724 140.763 31.4545C140.791 31.5366 140.801 31.6235 140.793 31.7097V40.9786H146.471C146.618 40.987 146.756 41.0518 146.857 41.1595C146.958 41.2673 147.013 41.4098 147.012 41.5573C147.012 41.7007 146.955 41.8382 146.853 41.9397C146.752 42.0411 146.614 42.098 146.471 42.098H140.165C140.001 42.0952 139.845 42.0277 139.731 41.9102C139.616 41.7927 139.553 41.6348 139.554 41.4707V31.7097Z" fill="white"/>
<path d="M71.3405 20.3425L77.6459 6.10383C77.8253 5.63423 78.1444 5.23099 78.5603 4.94859C78.9761 4.6662 79.4686 4.51825 79.9713 4.52476H80.2092C80.7085 4.51837 81.1975 4.66674 81.609 4.94949C82.0205 5.23224 82.3344 5.63549 82.5075 6.10383L88.813 20.3425C88.9394 20.5913 89.0113 20.8641 89.0239 21.1429C89.0275 21.393 88.9813 21.6413 88.8881 21.8734C88.7948 22.1055 88.6564 22.3168 88.4808 22.4949C88.3052 22.6731 88.0959 22.8145 87.8651 22.911C87.6344 23.0076 87.3867 23.0573 87.1366 23.0572C86.7149 23.0566 86.3038 22.9244 85.9607 22.6792C85.6176 22.434 85.3594 22.0879 85.2222 21.6891L83.9947 18.8446H76.0452L74.8014 21.8243C74.657 22.1919 74.4045 22.5071 74.0772 22.7282C73.7499 22.9493 73.3632 23.0659 72.9682 23.0626C72.7252 23.0627 72.4846 23.0144 72.2604 22.9206C72.0362 22.8267 71.8328 22.6893 71.6623 22.5162C71.4917 22.3431 71.3572 22.1378 71.2667 21.9122C71.1762 21.6867 71.1314 21.4454 71.135 21.2024C71.1511 20.9043 71.2304 20.6131 71.3675 20.3479L71.3405 20.3425ZM82.5292 15.3349L80.0254 9.38636L77.5053 15.3349H82.5292Z" fill="white"/>
<path d="M94.4154 8.48325H90.5921C90.3426 8.49679 90.093 8.45935 89.8585 8.3732C89.624 8.28706 89.4095 8.15401 89.2281 7.9822C89.0467 7.81039 88.9022 7.6034 88.8035 7.37389C88.7047 7.14438 88.6538 6.89715 88.6538 6.6473C88.6538 6.39745 88.7047 6.15023 88.8035 5.92071C88.9022 5.6912 89.0467 5.48422 89.2281 5.31241C89.4095 5.14059 89.624 5.00756 89.8585 4.92141C90.093 4.83526 90.3426 4.79781 90.5921 4.81136H102.219C102.468 4.79781 102.718 4.83526 102.952 4.92141C103.187 5.00756 103.402 5.14059 103.583 5.31241C103.764 5.48422 103.909 5.6912 104.008 5.92071C104.106 6.15023 104.157 6.39745 104.157 6.6473C104.157 6.89715 104.106 7.14438 104.008 7.37389C103.909 7.6034 103.764 7.81039 103.583 7.9822C103.402 8.15401 103.187 8.28706 102.952 8.3732C102.718 8.45935 102.468 8.49679 102.219 8.48325H98.3956V21.0672C98.3956 21.595 98.1859 22.1011 97.8127 22.4743C97.4395 22.8476 96.9333 23.0572 96.4055 23.0572C95.8777 23.0572 95.3715 22.8476 94.9983 22.4743C94.6251 22.1011 94.4154 21.595 94.4154 21.0672V8.48325Z" fill="white"/>
<path d="M106.945 6.80143C106.943 6.53949 106.993 6.27974 107.092 6.03731C107.191 5.79489 107.338 5.57465 107.523 5.38942C107.708 5.20419 107.929 5.05769 108.171 4.95845C108.414 4.8592 108.673 4.8092 108.935 4.81136H115.219C117.517 4.81136 119.302 5.45489 120.492 6.6446C121.012 7.19659 121.416 7.84682 121.682 8.55719C121.947 9.26755 122.069 10.0238 122.038 10.7816V10.8302C122.038 13.6747 120.616 15.4323 118.42 16.3354L121.189 19.699C121.583 20.1118 121.812 20.6542 121.833 21.224C121.831 21.4687 121.78 21.7106 121.684 21.9356C121.587 22.1606 121.448 22.3643 121.272 22.5348C121.096 22.7053 120.889 22.8393 120.661 22.929C120.433 23.0186 120.19 23.0622 119.945 23.0572C119.559 23.0574 119.178 22.9635 118.836 22.7835C118.494 22.6036 118.201 22.343 117.982 22.0243L114.105 17.1141H110.925V21.0672C110.925 21.595 110.716 22.1011 110.342 22.4743C109.969 22.8476 109.463 23.0572 108.935 23.0572C108.407 23.0572 107.901 22.8476 107.528 22.4743C107.155 22.1011 106.945 21.595 106.945 21.0672V6.80143ZM114.959 13.599C116.895 13.599 118.009 12.5661 118.009 11.0411V11.0087C118.009 9.30523 116.82 8.42376 114.878 8.42376H110.925V13.6206L114.959 13.599Z" fill="white"/>
<path d="M124.623 20.3425L130.929 6.10383C131.108 5.63423 131.427 5.23099 131.843 4.94859C132.259 4.6662 132.752 4.51825 133.254 4.52476H133.487C133.986 4.51837 134.475 4.66674 134.887 4.94949C135.298 5.23224 135.612 5.63549 135.785 6.10383L142.09 20.3425C142.217 20.5913 142.289 20.8641 142.301 21.1429C142.305 21.393 142.259 21.6413 142.166 21.8734C142.072 22.1055 141.934 22.3168 141.758 22.4949C141.583 22.6731 141.373 22.8145 141.143 22.911C140.912 23.0076 140.664 23.0573 140.414 23.0572C139.992 23.0566 139.581 22.9244 139.238 22.6792C138.895 22.434 138.637 22.0879 138.5 21.6891L137.283 18.8446H129.328L128.057 21.8189C127.913 22.1865 127.66 22.5017 127.333 22.7228C127.006 22.9439 126.619 23.0605 126.224 23.0572C125.981 23.0573 125.74 23.009 125.516 22.9151C125.292 22.8213 125.089 22.6839 124.918 22.5108C124.748 22.3377 124.613 22.1324 124.523 21.9068C124.432 21.6813 124.387 21.44 124.391 21.197C124.407 20.8989 124.486 20.6077 124.623 20.3425ZM135.812 15.3349L133.303 9.38636L130.799 15.3349H135.812Z" fill="white"/>
<path d="M147.699 8.48325H143.875C143.626 8.49679 143.376 8.45935 143.142 8.3732C142.907 8.28706 142.693 8.15401 142.511 7.9822C142.33 7.81039 142.185 7.6034 142.087 7.37389C141.988 7.14438 141.937 6.89715 141.937 6.6473C141.937 6.39745 141.988 6.15023 142.087 5.92071C142.185 5.6912 142.33 5.48422 142.511 5.31241C142.693 5.14059 142.907 5.00756 143.142 4.92141C143.376 4.83526 143.626 4.79781 143.875 4.81136H155.502C155.972 4.83686 156.414 5.04141 156.737 5.38292C157.061 5.72442 157.241 6.17692 157.241 6.6473C157.241 7.11769 157.061 7.57018 156.737 7.91169C156.414 8.2532 155.972 8.45775 155.502 8.48325H151.679V21.0672C151.679 21.595 151.469 22.1011 151.096 22.4743C150.723 22.8476 150.216 23.0572 149.689 23.0572C149.161 23.0572 148.655 22.8476 148.281 22.4743C147.908 22.1011 147.699 21.595 147.699 21.0672V8.48325Z" fill="white"/>
<path d="M160.412 6.6446C160.412 6.1168 160.622 5.61063 160.995 5.23742C161.368 4.86421 161.874 4.65454 162.402 4.65454C162.93 4.65454 163.436 4.86421 163.809 5.23742C164.183 5.61063 164.392 6.1168 164.392 6.6446V21.0672C164.392 21.595 164.183 22.1011 163.809 22.4743C163.436 22.8476 162.93 23.0572 162.402 23.0572C161.874 23.0572 161.368 22.8476 160.995 22.4743C160.622 22.1011 160.412 21.595 160.412 21.0672V6.6446Z" fill="white"/>
<path d="M168.551 20.9915C168.318 20.8174 168.128 20.5914 167.998 20.3313C167.867 20.0713 167.799 19.7844 167.799 19.4935C167.798 19.25 167.846 19.0088 167.94 18.784C168.033 18.5592 168.171 18.3552 168.344 18.184C168.517 18.0129 168.722 17.8779 168.948 17.7871C169.174 17.6962 169.416 17.6513 169.659 17.6549C170.069 17.6524 170.468 17.7792 170.801 18.0172C172.121 19.0516 173.747 19.6218 175.424 19.6395C177.047 19.6395 178.036 18.996 178.036 17.9361V17.882C178.036 16.8761 177.414 16.357 174.391 15.5837C170.746 14.6535 168.394 13.6423 168.394 10.0515V10.0028C168.394 6.72032 171.033 4.54639 174.727 4.54639C176.756 4.52209 178.748 5.08554 180.464 6.16873C180.806 6.38038 181.07 6.69816 181.215 7.07358C181.36 7.44901 181.378 7.86148 181.266 8.24809C181.155 8.6347 180.92 8.97423 180.597 9.21489C180.275 9.45555 179.882 9.58414 179.48 9.58104C179.125 9.58178 178.777 9.48446 178.474 9.29983C177.345 8.56109 176.037 8.14073 174.689 8.08308C173.164 8.08308 172.358 8.78068 172.358 9.66215V9.71083C172.358 10.9005 173.137 11.2899 176.262 12.0902C179.934 13.0474 182 14.3615 182 17.498V17.5521C182 21.1429 179.258 23.16 175.359 23.16C172.923 23.1643 170.547 22.4081 168.562 20.9969" fill="white"/>
</svg>
